<svg width="18" height="16" viewBox="0 0 18 16" fill="none" xmlns="http://www.w3.org/2000/svg">
<path d="M18 2.46498C17.6335 3.21114 17.0329 3.81694 16.29 4.18998V4.77498C16.2925 6.67718 15.7862 8.54543 14.8236 10.1861C13.861 11.8267 12.4771 13.1801 10.8153 14.1058C9.15357 15.0315 7.27448 15.496 5.37281 15.451C3.47114 15.406 1.61611 14.8533 0 13.85C0.25951 13.8726 0.52049 13.8726 0.78 13.85C2.50974 13.8459 4.18662 13.2534 5.535 12.17C4.75625 12.1319 4.00471 11.8715 3.36936 11.4196C2.73401 10.9677 2.24145 10.3431 1.95 9.61998C2.19716 9.66799 2.44823 9.69309 2.7 9.69498C2.97703 9.68806 3.25299 9.65795 3.525 9.60498C2.82178 9.36053 2.18858 8.94869 1.68 8.40498C1.02164 7.71339 0.633119 6.80862 0.585 5.85498C1.04649 6.11189 1.5583 6.26543 2.085 6.30498C2.17942 6.31987 2.27558 6.31987 2.37 6.30498L2.16 6.13998C1.54227 5.63608 1.08378 4.96398 0.84 4.20498C0.720736 3.84706 0.659957 3.47225 0.66 3.09498C0.665648 2.44793 0.836002 1.81297 1.155 1.24998C1.25525 1.40609 1.37082 1.55181 1.5 1.68498C1.725 1.93998 1.965 2.19498 2.22 2.43498C2.94973 3.13586 3.78488 3.71794 4.695 4.15998C5.05235 4.34778 5.42341 4.50824 5.805 4.63998C6.10512 4.74576 6.41053 4.83588 6.72 4.90998C7.33963 5.06169 7.97267 5.15213 8.61 5.17998H8.88C8.71142 4.546 8.71142 3.87897 8.88 3.24498C8.93862 3.00867 9.02948 2.78154 9.15 2.56998C9.27001 2.36977 9.40542 2.17919 9.555 1.99998L9.66 1.86498C10.0011 1.4654 10.4195 1.13886 10.89 0.904982C11.1206 0.795503 11.3619 0.710052 11.61 0.649982L12 0.589982C12.1847 0.574539 12.3703 0.574539 12.555 0.589982C13.0741 0.590451 13.5874 0.698682 14.0625 0.907825C14.5376 1.11697 14.9641 1.42247 15.315 1.80498C15.5022 1.79083 15.6879 1.76072 15.87 1.71498C16.323 1.6252 16.7585 1.46313 17.16 1.23498C17.321 1.1526 17.472 1.05193 17.61 0.934982C17.388 1.72441 16.9073 2.4164 16.245 2.89998C16.8518 2.8643 17.4468 2.71683 18 2.46498Z" fill="#F5F5F5"/>
</svg>
